<svg width="32" height="32" viewBox="0 0 32 32" fill="none" xmlns="http://www.w3.org/2000/svg">
<path d="M16.0001 29.3332C14.1556 29.3332 12.4223 28.9829 10.8001 28.2825C9.17786 27.5821 7.76675 26.6323 6.56675 25.4332C5.36675 24.2332 4.41697 22.8221 3.71741 21.1998C3.01786 19.5776 2.66764 17.8443 2.66675 15.9998C2.66675 14.1554 3.01697 12.4221 3.71741 10.7998C4.41786 9.17762 5.36764 7.7665 6.56675 6.5665C7.76675 5.3665 9.17786 4.41673 10.8001 3.71717C12.4223 3.01762 14.1556 2.66739 16.0001 2.6665C17.8445 2.6665 19.5779 3.01673 21.2001 3.71717C22.8223 4.41762 24.2334 5.36739 25.4334 6.5665C26.6334 7.7665 27.5836 9.17762 28.2841 10.7998C28.9845 12.4221 29.3343 14.1554 29.3334 15.9998C29.3334 17.8443 28.9832 19.5776 28.2827 21.1998C27.5823 22.8221 26.6325 24.2332 25.4334 25.4332C24.2334 26.6332 22.8223 27.5834 21.2001 28.2838C19.5779 28.9843 17.8445 29.3341 16.0001 29.3332ZM16.0001 26.6665C18.9779 26.6665 21.5001 25.6332 23.5667 23.5665C25.6334 21.4998 26.6667 18.9776 26.6667 15.9998C26.6667 14.7998 26.4721 13.6443 26.0827 12.5332C25.6934 11.4221 25.1325 10.3998 24.4001 9.4665L9.46675 24.3998C10.4001 25.1332 11.4223 25.6945 12.5334 26.0838C13.6445 26.4732 14.8001 26.6674 16.0001 26.6665ZM7.60008 22.5332L22.5334 7.59984C21.6001 6.8665 20.5779 6.30562 19.4667 5.91717C18.3556 5.52873 17.2001 5.33406 16.0001 5.33317C13.0223 5.33317 10.5001 6.3665 8.43341 8.43317C6.36675 10.4998 5.33341 13.0221 5.33341 15.9998C5.33341 17.1998 5.52764 18.3554 5.91608 19.4665C6.30453 20.5776 6.86586 21.5998 7.60008 22.5332Z" fill="#F24E1E"/>
</svg>
