<svg width="193" height="248" viewBox="0 0 193 248" fill="none" xmlns="http://www.w3.org/2000/svg">
<g clip-path="url(#clip0_525_2)">
<path d="M96.5 0C58.4928 0 27.5714 34.7665 27.5714 77.5V100.75H17.2321C12.6636 100.756 8.28369 102.799 5.05322 106.432C1.82275 110.064 0.00547244 114.988 0 120.125L0 228.625C0 239.305 7.73379 248 17.2321 248H175.768C185.266 248 193 239.305 193 228.625V120.125C193 109.445 185.266 100.75 175.768 100.75H165.429V77.5C165.429 34.7665 134.507 0 96.5 0ZM34.4643 77.5C34.4643 39.0445 62.2976 7.75 96.5 7.75C130.702 7.75 158.536 39.0445 158.536 77.5V100.75H137.857V77.5C137.857 51.8552 119.308 31 96.5 31C73.6915 31 55.1429 51.8552 55.1429 77.5V100.75H34.4643V77.5ZM130.964 100.75H62.0357V77.5C62.0357 56.1333 77.4964 38.75 96.5 38.75C115.504 38.75 130.964 56.1333 130.964 77.5V100.75ZM84.7339 162.75L50.2696 201.5H18.659L53.1232 162.75H84.7339ZM126.091 162.75L91.6268 201.5H60.0161L94.4804 162.75H126.091ZM167.448 162.75L132.984 201.5H101.373L135.838 162.75H167.448ZM186.107 162.75V201.5H142.73L177.195 162.75H186.107ZM8.91246 201.5H6.89286V162.75H43.3768L8.91246 201.5ZM175.768 240.25H17.2321C11.5317 240.25 6.89286 235.034 6.89286 228.625V209.25H186.107V228.625C186.107 235.034 181.468 240.25 175.768 240.25ZM186.107 120.125V155H6.89286V120.125C6.89286 113.716 11.5317 108.5 17.2321 108.5H175.768C181.468 108.5 186.107 113.716 186.107 120.125Z" fill="#00FFF0"/>
</g>
<defs>
<clipPath id="clip0_525_2">
<rect width="193" height="248" fill="white"/>
</clipPath>
</defs>
</svg>
