<svg width="32" height="32" viewBox="0 0 32 32" fill="none" xmlns="http://www.w3.org/2000/svg">
<path d="M9.5 5.5C9.10603 5.5 8.71593 5.5776 8.35195 5.72836C7.98797 5.87913 7.65726 6.1001 7.37868 6.37868C7.1001 6.65726 6.87913 6.98797 6.72836 7.35195C6.5776 7.71593 6.5 8.10603 6.5 8.5C6.5 8.89397 6.5776 9.28407 6.72836 9.64805C6.87913 10.012 7.1001 10.3427 7.37868 10.6213C7.65726 10.8999 7.98797 11.1209 8.35195 11.2716C8.71593 11.4224 9.10603 11.5 9.5 11.5C10.2956 11.5 11.0587 11.1839 11.6213 10.6213C12.1839 10.0587 12.5 9.29565 12.5 8.5C12.5 7.70435 12.1839 6.94129 11.6213 6.37868C11.0587 5.81607 10.2956 5.5 9.5 5.5ZM22.5 5.501C21.7044 5.501 20.9413 5.81707 20.3787 6.37968C19.8161 6.94229 19.5 7.70535 19.5 8.501C19.5 9.29665 19.8161 10.0597 20.3787 10.6223C20.9413 11.1849 21.7044 11.501 22.5 11.501C23.2956 11.501 24.0587 11.1849 24.6213 10.6223C25.1839 10.0597 25.5 9.29665 25.5 8.501C25.5 7.70535 25.1839 6.94229 24.6213 6.37968C24.0587 5.81707 23.2956 5.501 22.5 5.501ZM17.5 12.501C17.2348 12.501 16.9804 12.6064 16.7929 12.7939C16.6054 12.9814 16.5 13.2358 16.5 13.501C16.5 13.7662 16.6054 14.0206 16.7929 14.2081C16.9804 14.3956 17.2348 14.501 17.5 14.501C17.7652 14.501 18.0196 14.3956 18.2071 14.2081C18.3946 14.0206 18.5 13.7662 18.5 13.501C18.5 13.2358 18.3946 12.9814 18.2071 12.7939C18.0196 12.6064 17.7652 12.501 17.5 12.501ZM14.5 12.501C14.2348 12.501 13.9804 12.6064 13.7929 12.7939C13.6054 12.9814 13.5 13.2358 13.5 13.501C13.5 13.7662 13.6054 14.0206 13.7929 14.2081C13.9804 14.3956 14.2348 14.501 14.5 14.501C14.7652 14.501 15.0196 14.3956 15.2071 14.2081C15.3946 14.0206 15.5 13.7662 15.5 13.501C15.5 13.2358 15.3946 12.9814 15.2071 12.7939C15.0196 12.6064 14.7652 12.501 14.5 12.501Z" fill="#40DDFF"/>
<path d="M16.17 7.00115C16.5131 5.55281 17.3429 4.2661 18.5207 3.35604C19.6985 2.44598 21.1529 1.96771 22.641 2.00115H22.644C26.13 2.08515 28.953 4.93015 29 8.42915V8.43115C29.0112 9.39507 28.8079 10.3494 28.405 11.2252C30.0833 13.2782 31.0001 15.8484 31 18.5002C31 24.8532 25.852 30.0002 19.5 30.0002H12.5C6.148 30.0002 1 24.8532 1 18.5002C1 15.7392 1.98 13.2062 3.598 11.2202C3.19229 10.3431 2.98797 9.38641 3 8.42015V8.41815C3.047 4.92815 5.87 2.08415 9.356 2.00215H9.359C10.8458 1.96949 12.2988 2.44823 13.475 3.35833C14.6513 4.26843 15.4794 5.55472 15.821 7.00215H16.171L16.17 7.00115ZM18.04 7.86815C17.9966 8.18211 17.841 8.46974 17.6021 8.67798C17.3631 8.88622 17.0569 9.00101 16.74 9.00115H15.25C14.579 9.00115 14.035 8.50115 13.949 7.86515C13.7959 6.77595 13.2484 5.78082 12.4102 5.06856C11.5721 4.35631 10.5016 3.97649 9.402 4.00115C6.99 4.05915 5.033 6.03415 5 8.44415C4.99128 9.12115 5.13625 9.7913 5.424 10.4042L5.427 10.4112L5.43 10.4182C5.5808 10.7503 5.63571 11.118 5.58853 11.4797C5.54135 11.8415 5.39396 12.1828 5.163 12.4652C3.61535 14.3453 2.84923 16.7482 3.023 19.1772L3.082 19.1792C3.308 19.1892 3.629 19.1992 4.002 19.1972C4.762 19.1922 5.687 19.1382 6.467 18.9622C6.757 18.8972 7.127 18.7032 7.688 18.3322C7.852 18.2242 8.036 18.0982 8.235 17.9622C8.69092 17.6444 9.15508 17.3386 9.627 17.0452C11.173 16.1012 13.197 15.1872 16 15.1872C18.778 15.1872 20.724 15.9872 22.199 16.9042C22.869 17.3202 23.44 17.7602 23.918 18.1272L24.026 18.2112C24.552 18.6152 24.916 18.8812 25.238 19.0332C26.048 19.4132 26.478 19.5232 26.924 19.5632C27.254 19.5932 27.573 19.5862 28.038 19.5762C28.288 19.5712 28.581 19.5652 28.941 19.5632C29.0834 18.2994 28.9704 17.0198 28.6088 15.8005C28.2472 14.5812 27.6444 13.447 26.836 12.4652C26.6052 12.1845 26.458 11.8446 26.4109 11.4843C26.3639 11.124 26.419 10.7577 26.57 10.4272L26.573 10.4192C26.853 9.81815 27.008 9.15615 27 8.45315C26.9811 7.28689 26.5128 6.17292 25.6927 5.3435C24.8726 4.51408 23.764 4.03321 22.598 4.00115C21.4967 3.97607 20.4245 4.35589 19.5846 5.06863C18.7447 5.78136 18.1945 6.77747 18.04 7.86815ZM28.495 21.5702L28.235 21.5752C27.671 21.5852 27.18 21.5952 26.747 21.5562C25.996 21.4892 25.331 21.2872 24.387 20.8432C23.835 20.5832 23.299 20.1742 22.809 19.7982L22.71 19.7222C22.224 19.3482 21.727 18.9652 21.145 18.6042C19.933 17.8512 18.348 17.1882 16.001 17.1882C13.679 17.1882 12.016 17.9312 10.671 18.7532C10.213 19.0332 9.821 19.3012 9.435 19.5662C9.222 19.7122 9.011 19.8572 8.791 20.0022C8.226 20.3762 7.588 20.7602 6.909 20.9142C5.921 21.1372 4.83 21.1932 4.016 21.1982C3.80598 21.1994 3.59596 21.1974 3.386 21.1922C3.96745 23.1583 5.16917 24.8836 6.81176 26.1106C8.45435 27.3376 10.4497 28.0004 12.5 28.0002H19.5C21.4828 28.0005 23.4161 27.3805 25.0289 26.2271C26.6418 25.0737 27.8534 23.4446 28.494 21.5682L28.495 21.5702Z" fill="#40DDFF"/>
</svg>
