<svg width="24" height="24" viewBox="0 0 24 24" fill="none" xmlns="http://www.w3.org/2000/svg">
<path d="M21.9767 15.1876C22.0506 15.3159 22.0984 15.4575 22.1176 15.6043C22.1367 15.7511 22.1268 15.9002 22.0883 16.0431C22.0498 16.1861 21.9836 16.32 21.8933 16.4374C21.8031 16.5547 21.6906 16.6531 21.5623 16.727C21.434 16.8009 21.2924 16.8488 21.1457 16.8679C20.9989 16.8871 20.8497 16.8771 20.7068 16.8386C20.5639 16.8002 20.4299 16.7339 20.3126 16.6436C20.1952 16.5534 20.0968 16.4409 20.0229 16.3126L18.4423 13.547C17.5603 14.1019 16.6094 14.5387 15.6139 14.8464L16.1098 17.8126C16.1586 18.1069 16.0885 18.4085 15.915 18.6511C15.7415 18.8937 15.4787 19.0575 15.1845 19.1064C15.1226 19.1173 15.0598 19.1226 14.997 19.1223C14.7313 19.1221 14.4743 19.0278 14.2715 18.8562C14.0687 18.6846 13.9331 18.4468 13.8889 18.1848L13.4061 15.2973C12.4695 15.4011 11.5244 15.4011 10.5879 15.2973L10.1098 18.1876C10.0655 18.4499 9.92965 18.688 9.72645 18.8596C9.52324 19.0312 9.26579 19.1253 8.99981 19.1251C8.93696 19.1254 8.87421 19.1201 8.81231 19.1092C8.66659 19.0847 8.52714 19.0316 8.40191 18.9532C8.27668 18.8748 8.16813 18.7724 8.08247 18.652C7.9968 18.5316 7.9357 18.3955 7.90264 18.2515C7.86958 18.1075 7.86522 17.9583 7.88981 17.8126L8.38575 14.8389C7.39021 14.5312 6.4393 14.0944 5.55731 13.5395L3.97668 16.3126C3.90281 16.4409 3.8044 16.5534 3.68706 16.6436C3.56973 16.7339 3.43576 16.8002 3.29282 16.8386C3.14987 16.8771 3.00075 16.8871 2.85396 16.8679C2.70717 16.8488 2.56559 16.8009 2.43731 16.727C2.30902 16.6531 2.19654 16.5547 2.10629 16.4374C2.01604 16.32 1.94978 16.1861 1.91131 16.0431C1.87283 15.9002 1.86288 15.7511 1.88203 15.6043C1.90119 15.4575 1.94906 15.3159 2.02293 15.1876L3.74981 12.1736C3.16451 11.645 2.62189 11.071 2.127 10.457C1.95228 10.224 1.87475 9.93229 1.9107 9.64328C1.94665 9.35427 2.09328 9.09045 2.31975 8.90734C2.54622 8.72422 2.83488 8.63606 3.12501 8.66141C3.41515 8.68676 3.68415 8.82364 3.87543 9.04326C5.37918 10.9051 8.00981 13.1251 11.9998 13.1251C15.9898 13.1251 18.6204 10.9051 20.1242 9.04326C20.3124 8.81337 20.5839 8.66725 20.8794 8.63679C21.1749 8.60633 21.4705 8.69401 21.7016 8.88069C21.9327 9.06736 22.0806 9.33788 22.113 9.63321C22.1454 9.92853 22.0597 10.2247 21.8745 10.457C21.379 11.0711 20.8357 11.6451 20.2498 12.1736L21.9767 15.1876Z" fill="#40DDFF"/>
</svg>
