<svg width="762" height="539" viewBox="0 0 762 539" fill="none" xmlns="http://www.w3.org/2000/svg">
<g filter="url(#filter0_f_101_209)">
<path d="M313.528 107L351.311 147.207L361.014 143.488L362.749 147.922L334.411 158.784L388.275 217.401L388.323 217.465C392.968 223.271 400.152 227 408.195 227C422.156 227 433.528 215.75 433.528 201.939C433.528 190.844 426.19 181.402 416.066 178.116L382.114 159.412L367.528 165.507L365.657 161.128L376.789 156.48L376.741 156.456L403.118 145.451L313.528 107ZM408.194 181.629C419.56 181.629 428.725 190.695 428.725 201.939C428.725 203.939 428.43 205.867 427.889 207.691L422.539 206.714L423.744 196.631L417.889 210.417L426.234 211.657C424.763 214.332 422.701 216.646 420.203 218.426L407.094 212.133L416.684 200.747L396.227 190.417L409.865 202.431L398.564 211.705L409.544 222.209C409.098 222.237 408.648 222.249 408.195 222.249C396.829 222.249 387.665 213.182 387.665 201.939C387.665 201.562 387.676 201.189 387.697 200.818L395.552 203.734L393.881 210.234L401.014 201.35L388.307 196.845C390.057 190.103 395.212 184.736 401.857 182.614L408.154 191.569L421.375 190.242L410.644 188.025L406.098 181.731C406.786 181.663 407.487 181.628 408.194 181.628L408.194 181.629Z" stroke="url(#paint0_linear_101_209)" stroke-width="3"/>
</g>
<path d="M313.527 107L351.31 147.207L361.012 143.488L362.747 147.922L334.41 158.784L388.274 217.401L388.322 217.465C392.967 223.271 400.151 227 408.194 227C422.155 227 433.527 215.75 433.527 201.939C433.527 190.844 426.188 181.402 416.065 178.116L382.113 159.412L367.527 165.507L365.656 161.128L376.787 156.48L376.74 156.456L403.117 145.451L313.527 107ZM408.193 181.629C419.558 181.629 428.723 190.695 428.723 201.939C428.723 203.939 428.429 205.867 427.888 207.691L422.538 206.714L423.743 196.631L417.888 210.417L426.233 211.657C424.761 214.332 422.7 216.646 420.201 218.426L407.093 212.133L416.683 200.747L396.225 190.417L409.864 202.431L398.563 211.705L409.543 222.209C409.097 222.237 408.647 222.249 408.194 222.249C396.828 222.249 387.663 213.182 387.663 201.939C387.663 201.562 387.675 201.189 387.695 200.818L395.551 203.734L393.88 210.234L401.012 201.35L388.306 196.845C390.055 190.103 395.211 184.736 401.855 182.614L408.153 191.569L421.374 190.242L410.643 188.025L406.096 181.731C406.785 181.663 407.485 181.628 408.193 181.628L408.193 181.629Z" stroke="url(#paint1_linear_101_209)" stroke-width="3"/>
<g opacity="0.8" filter="url(#filter1_f_101_209)">
<ellipse cx="381" cy="169" rx="80.4724" ry="70" fill="#00F0FF"/>
</g>
<g filter="url(#filter2_d_101_209)">
<path d="M299.076 298.2L298.66 289.912L307.108 280.6H315.332L305.86 291.032L301.668 295.32L299.076 298.2ZM292.324 303V280.6H299.748V303H292.324ZM307.044 303L300.452 294.296L305.348 289.112L315.78 303H307.044ZM316.569 303V285.496H323.801V303H316.569ZM320.185 284.088C318.862 284.088 317.806 283.736 317.017 283.032C316.227 282.328 315.833 281.453 315.833 280.408C315.833 279.363 316.227 278.488 317.017 277.784C317.806 277.08 318.862 276.728 320.185 276.728C321.507 276.728 322.563 277.059 323.353 277.72C324.142 278.381 324.537 279.235 324.537 280.28C324.537 281.389 324.142 282.307 323.353 283.032C322.563 283.736 321.507 284.088 320.185 284.088ZM339.166 285.176C340.51 285.176 341.726 285.453 342.814 286.008C343.902 286.541 344.756 287.384 345.374 288.536C346.014 289.688 346.334 291.181 346.334 293.016V303H339.102V294.264C339.102 293.176 338.91 292.408 338.526 291.96C338.142 291.491 337.62 291.256 336.958 291.256C336.468 291.256 336.009 291.373 335.582 291.608C335.177 291.821 334.846 292.184 334.59 292.696C334.356 293.208 334.238 293.901 334.238 294.776V303H327.006V285.496H333.886V290.616L332.51 289.144C333.193 287.821 334.11 286.829 335.262 286.168C336.436 285.507 337.737 285.176 339.166 285.176ZM358.684 309.528C356.956 309.528 355.334 309.347 353.82 308.984C352.305 308.621 351.004 308.077 349.916 307.352L352.348 302.424C353.03 302.957 353.894 303.373 354.94 303.672C356.006 303.992 357.009 304.152 357.948 304.152C359.441 304.152 360.508 303.832 361.148 303.192C361.788 302.573 362.108 301.677 362.108 300.504V299.032L362.428 293.592L362.46 288.152V285.496H369.34V299.512C369.34 302.904 368.401 305.421 366.524 307.064C364.646 308.707 362.033 309.528 358.684 309.528ZM357.276 302.04C355.804 302.04 354.428 301.699 353.148 301.016C351.868 300.312 350.833 299.331 350.044 298.072C349.254 296.813 348.86 295.32 348.86 293.592C348.86 291.864 349.254 290.371 350.044 289.112C350.833 287.853 351.868 286.883 353.148 286.2C354.428 285.517 355.804 285.176 357.276 285.176C358.79 285.176 360.028 285.475 360.988 286.072C361.969 286.669 362.694 287.597 363.164 288.856C363.633 290.093 363.868 291.672 363.868 293.592C363.868 295.512 363.633 297.101 363.164 298.36C362.694 299.597 361.969 300.525 360.988 301.144C360.028 301.741 358.79 302.04 357.276 302.04ZM359.196 296.408C359.772 296.408 360.284 296.291 360.732 296.056C361.18 295.821 361.532 295.491 361.788 295.064C362.044 294.637 362.172 294.147 362.172 293.592C362.172 293.016 362.044 292.525 361.788 292.12C361.532 291.693 361.18 291.373 360.732 291.16C360.284 290.925 359.772 290.808 359.196 290.808C358.641 290.808 358.129 290.925 357.66 291.16C357.212 291.373 356.849 291.693 356.572 292.12C356.316 292.525 356.188 293.016 356.188 293.592C356.188 294.147 356.316 294.637 356.572 295.064C356.849 295.491 357.212 295.821 357.66 296.056C358.129 296.291 358.641 296.408 359.196 296.408ZM382.355 303V280.6H393.139C395.23 280.6 397.033 280.941 398.547 281.624C400.083 282.307 401.267 283.288 402.099 284.568C402.931 285.827 403.347 287.32 403.347 289.048C403.347 290.776 402.931 292.269 402.099 293.528C401.267 294.787 400.083 295.768 398.547 296.472C397.033 297.155 395.23 297.496 393.139 297.496H386.547L389.907 294.264V303H382.355ZM389.907 295.096L386.547 291.672H392.659C393.705 291.672 394.473 291.437 394.963 290.968C395.475 290.499 395.731 289.859 395.731 289.048C395.731 288.237 395.475 287.597 394.963 287.128C394.473 286.659 393.705 286.424 392.659 286.424H386.547L389.907 283V295.096ZM414.848 303.32C412.864 303.32 411.104 302.936 409.568 302.168C408.053 301.379 406.859 300.301 405.984 298.936C405.109 297.571 404.672 296.003 404.672 294.232C404.672 292.461 405.109 290.893 405.984 289.528C406.859 288.163 408.053 287.096 409.568 286.328C411.104 285.56 412.864 285.176 414.848 285.176C416.832 285.176 418.592 285.56 420.128 286.328C421.664 287.096 422.859 288.163 423.712 289.528C424.587 290.893 425.024 292.461 425.024 294.232C425.024 296.003 424.587 297.571 423.712 298.936C422.859 300.301 421.664 301.379 420.128 302.168C418.592 302.936 416.832 303.32 414.848 303.32ZM414.848 297.688C415.381 297.688 415.861 297.56 416.288 297.304C416.715 297.048 417.056 296.664 417.312 296.152C417.568 295.619 417.696 294.979 417.696 294.232C417.696 293.464 417.568 292.835 417.312 292.344C417.056 291.832 416.715 291.448 416.288 291.192C415.861 290.936 415.381 290.808 414.848 290.808C414.315 290.808 413.835 290.936 413.408 291.192C412.981 291.448 412.64 291.832 412.384 292.344C412.128 292.835 412 293.464 412 294.232C412 294.979 412.128 295.619 412.384 296.152C412.64 296.664 412.981 297.048 413.408 297.304C413.835 297.56 414.315 297.688 414.848 297.688ZM439.448 285.176C440.792 285.176 442.008 285.453 443.096 286.008C444.184 286.541 445.037 287.384 445.656 288.536C446.296 289.688 446.616 291.181 446.616 293.016V303H439.384V294.264C439.384 293.176 439.192 292.408 438.808 291.96C438.424 291.491 437.901 291.256 437.24 291.256C436.749 291.256 436.29 291.373 435.864 291.608C435.458 291.821 435.128 292.184 434.872 292.696C434.637 293.208 434.52 293.901 434.52 294.776V303H427.288V285.496H434.168V290.616L432.792 289.144C433.474 287.821 434.392 286.829 435.544 286.168C436.717 285.507 438.018 285.176 439.448 285.176ZM458.965 309.528C457.237 309.528 455.615 309.347 454.101 308.984C452.586 308.621 451.285 308.077 450.197 307.352L452.629 302.424C453.311 302.957 454.175 303.373 455.221 303.672C456.287 303.992 457.29 304.152 458.229 304.152C459.722 304.152 460.789 303.832 461.429 303.192C462.069 302.573 462.389 301.677 462.389 300.504V299.032L462.709 293.592L462.741 288.152V285.496H469.621V299.512C469.621 302.904 468.682 305.421 466.805 307.064C464.927 308.707 462.314 309.528 458.965 309.528ZM457.557 302.04C456.085 302.04 454.709 301.699 453.429 301.016C452.149 300.312 451.114 299.331 450.325 298.072C449.535 296.813 449.141 295.32 449.141 293.592C449.141 291.864 449.535 290.371 450.325 289.112C451.114 287.853 452.149 286.883 453.429 286.2C454.709 285.517 456.085 285.176 457.557 285.176C459.071 285.176 460.309 285.475 461.269 286.072C462.25 286.669 462.975 287.597 463.445 288.856C463.914 290.093 464.149 291.672 464.149 293.592C464.149 295.512 463.914 297.101 463.445 298.36C462.975 299.597 462.25 300.525 461.269 301.144C460.309 301.741 459.071 302.04 457.557 302.04ZM459.477 296.408C460.053 296.408 460.565 296.291 461.013 296.056C461.461 295.821 461.813 295.491 462.069 295.064C462.325 294.637 462.453 294.147 462.453 293.592C462.453 293.016 462.325 292.525 462.069 292.12C461.813 291.693 461.461 291.373 461.013 291.16C460.565 290.925 460.053 290.808 459.477 290.808C458.922 290.808 458.41 290.925 457.941 291.16C457.493 291.373 457.13 291.693 456.853 292.12C456.597 292.525 456.469 293.016 456.469 293.592C456.469 294.147 456.597 294.637 456.853 295.064C457.13 295.491 457.493 295.821 457.941 296.056C458.41 296.291 458.922 296.408 459.477 296.408Z" fill="white"/>
</g>
<defs>
<filter id="filter0_f_101_209" x="292.435" y="85.6221" width="162.593" height="162.878" filterUnits="userSpaceOnUse" color-interpolation-filters="sRGB">
<feFlood flood-opacity="0" result="BackgroundImageFix"/>
<feBlend mode="normal" in="SourceGraphic" in2="BackgroundImageFix" result="shape"/>
<feGaussianBlur stdDeviation="10" result="effect1_foregroundBlur_101_209"/>
</filter>
<filter id="filter1_f_101_209" x="0.527588" y="-201" width="760.945" height="740" filterUnits="userSpaceOnUse" color-interpolation-filters="sRGB">
<feFlood flood-opacity="0" result="BackgroundImageFix"/>
<feBlend mode="normal" in="SourceGraphic" in2="BackgroundImageFix" result="shape"/>
<feGaussianBlur stdDeviation="150" result="effect1_foregroundBlur_101_209"/>
</filter>
<filter id="filter2_d_101_209" x="288.324" y="276.728" width="185.297" height="40.8008" filterUnits="userSpaceOnUse" color-interpolation-filters="sRGB">
<feFlood flood-opacity="0" result="BackgroundImageFix"/>
<feColorMatrix in="SourceAlpha" type="matrix" values="0 0 0 0 0 0 0 0 0 0 0 0 0 0 0 0 0 0 127 0" result="hardAlpha"/>
<feOffset dy="4"/>
<feGaussianBlur stdDeviation="2"/>
<feComposite in2="hardAlpha" operator="out"/>
<feColorMatrix type="matrix" values="0 0 0 0 0 0 0 0 0 0 0 0 0 0 0 0 0 0 0.25 0"/>
<feBlend mode="normal" in2="BackgroundImageFix" result="effect1_dropShadow_101_209"/>
<feBlend mode="normal" in="SourceGraphic" in2="effect1_dropShadow_101_209" result="shape"/>
</filter>
<linearGradient id="paint0_linear_101_209" x1="373.528" y1="107" x2="373.528" y2="227" gradientUnits="userSpaceOnUse">
<stop stop-color="#E440FF"/>
<stop offset="1" stop-color="#40DEFF"/>
</linearGradient>
<linearGradient id="paint1_linear_101_209" x1="373.527" y1="107" x2="373.527" y2="227" gradientUnits="userSpaceOnUse">
<stop stop-color="#E440FF"/>
<stop offset="1" stop-color="#40DEFF"/>
</linearGradient>
</defs>
</svg>
