<svg width="32" height="32" viewBox="0 0 32 32" fill="none" xmlns="http://www.w3.org/2000/svg">
<path d="M15.9999 22.6668C15.2927 22.6668 14.6144 22.3859 14.1143 21.8858C13.6142 21.3857 13.3333 20.7074 13.3333 20.0002C13.3333 18.5202 14.5199 17.3335 15.9999 17.3335C16.7072 17.3335 17.3854 17.6144 17.8855 18.1145C18.3856 18.6146 18.6666 19.2929 18.6666 20.0002C18.6666 20.7074 18.3856 21.3857 17.8855 21.8858C17.3854 22.3859 16.7072 22.6668 15.9999 22.6668ZM23.9999 26.6668V13.3335H7.99992V26.6668H23.9999ZM23.9999 10.6668C24.7072 10.6668 25.3854 10.9478 25.8855 11.4479C26.3856 11.948 26.6666 12.6263 26.6666 13.3335V26.6668C26.6666 27.3741 26.3856 28.0524 25.8855 28.5524C25.3854 29.0525 24.7072 29.3335 23.9999 29.3335H7.99992C7.29267 29.3335 6.6144 29.0525 6.1143 28.5524C5.6142 28.0524 5.33325 27.3741 5.33325 26.6668V13.3335C5.33325 11.8535 6.51992 10.6668 7.99992 10.6668H9.33325V8.00016C9.33325 6.23205 10.0356 4.53636 11.2859 3.28612C12.5361 2.03588 14.2318 1.3335 15.9999 1.3335C16.8754 1.3335 17.7423 1.50593 18.5511 1.84097C19.36 2.176 20.0949 2.66706 20.714 3.28612C21.333 3.90517 21.8241 4.6401 22.1591 5.44894C22.4941 6.25778 22.6666 7.12468 22.6666 8.00016V10.6668H23.9999ZM15.9999 4.00016C14.9391 4.00016 13.9216 4.42159 13.1715 5.17174C12.4213 5.92188 11.9999 6.9393 11.9999 8.00016V10.6668H19.9999V8.00016C19.9999 6.9393 19.5785 5.92188 18.8283 5.17174C18.0782 4.42159 17.0608 4.00016 15.9999 4.00016Z" fill="#FFD233"/>
</svg>
