<svg width="32" height="32" viewBox="0 0 32 32" fill="none" xmlns="http://www.w3.org/2000/svg">
<path d="M2.66659 25.3335V22.6668H29.3333V25.3335H2.66659ZM4.19992 17.2668L2.46659 16.2668L3.59992 14.2668H1.33325V12.2668H3.59992L2.46659 10.3335L4.19992 9.3335L5.33325 11.2668L6.46659 9.3335L8.19992 10.3335L7.06659 12.2668H9.33325V14.2668H7.06659L8.19992 16.2668L6.46659 17.2668L5.33325 15.2668L4.19992 17.2668ZM14.8666 17.2668L13.1333 16.2668L14.2666 14.2668H11.9999V12.2668H14.2666L13.1333 10.3335L14.8666 9.3335L15.9999 11.2668L17.1333 9.3335L18.8666 10.3335L17.7333 12.2668H19.9999V14.2668H17.7333L18.8666 16.2668L17.1333 17.2668L15.9999 15.2668L14.8666 17.2668ZM25.5333 17.2668L23.7999 16.2668L24.9333 14.2668H22.6666V12.2668H24.9333L23.7999 10.3335L25.5333 9.3335L26.6666 11.2668L27.7999 9.3335L29.5333 10.3335L28.3999 12.2668H30.6666V14.2668H28.3999L29.5333 16.2668L27.7999 17.2668L26.6666 15.2668L25.5333 17.2668Z" fill="#4ECB71"/>
</svg>
