<svg width="50" height="50" viewBox="0 0 50 50" fill="none" xmlns="http://www.w3.org/2000/svg">
<path d="M18.1592 50L17.1642 42C16.6252 41.7917 16.1169 41.5417 15.6393 41.25C15.1617 40.9583 14.6957 40.6458 14.2413 40.3125L6.8408 43.4375L0 31.5625L6.40547 26.6875C6.36401 26.3958 6.34328 26.1142 6.34328 25.8425V24.1575C6.34328 23.8858 6.36401 23.6042 6.40547 23.3125L0 18.4375L6.8408 6.5625L14.2413 9.6875C14.6973 9.35417 15.1741 9.04167 15.6716 8.75C16.1692 8.45833 16.6667 8.20833 17.1642 8L18.1592 0H31.8408L32.8358 8C33.3748 8.20833 33.8831 8.45833 34.3607 8.75C34.8383 9.04167 35.3043 9.35417 35.7587 9.6875L43.1592 6.5625L50 18.4375L43.5945 23.3125C43.636 23.6042 43.6567 23.8858 43.6567 24.1575V25.8425C43.6567 26.1142 43.6153 26.3958 43.5323 26.6875L49.9378 31.5625L43.097 43.4375L35.7587 40.3125C35.3027 40.6458 34.8259 40.9583 34.3284 41.25C33.8308 41.5417 33.3333 41.7917 32.8358 42L31.8408 50H18.1592ZM25.1244 33.75C27.529 33.75 29.5813 32.8958 31.2811 31.1875C32.9809 29.4792 33.8308 27.4167 33.8308 25C33.8308 22.5833 32.9809 20.5208 31.2811 18.8125C29.5813 17.1042 27.529 16.25 25.1244 16.25C22.6783 16.25 20.6153 17.1042 18.9353 18.8125C17.2554 20.5208 16.4163 22.5833 16.4179 25C16.4179 27.4167 17.2571 29.4792 18.9353 31.1875C20.6136 32.8958 22.6766 33.75 25.1244 33.75Z" fill="#FFFFFF"/>
</svg>
