<svg width="32" height="32" viewBox="0 0 32 32" fill="none" xmlns="http://www.w3.org/2000/svg">
<path fill-rule="evenodd" clip-rule="evenodd" d="M13.3334 5.3335H10.6667V8.00016H6.66675C5.60588 8.00016 4.58847 8.42159 3.83832 9.17174C3.08818 9.92188 2.66675 10.9393 2.66675 12.0002V20.0002C2.66675 21.061 3.08818 22.0784 3.83832 22.8286C4.58847 23.5787 5.60588 24.0002 6.66675 24.0002H10.6667V26.6668H13.3334V5.3335ZM10.6667 10.6668V21.3335H6.66675C6.31313 21.3335 5.97399 21.193 5.72394 20.943C5.47389 20.6929 5.33341 20.3538 5.33341 20.0002V12.0002C5.33341 11.6465 5.47389 11.3074 5.72394 11.0574C5.97399 10.8073 6.31313 10.6668 6.66675 10.6668H10.6667Z" fill="#FF00F5"/>
<path d="M25.3333 21.3333H16V24H25.3333C26.3942 24 27.4116 23.5786 28.1618 22.8284C28.9119 22.0783 29.3333 21.0609 29.3333 20V12C29.3333 10.9391 28.9119 9.92172 28.1618 9.17157C27.4116 8.42143 26.3942 8 25.3333 8H16V10.6667H25.3333C25.687 10.6667 26.0261 10.8071 26.2761 11.0572C26.5262 11.3072 26.6667 11.6464 26.6667 12V20C26.6667 20.3536 26.5262 20.6928 26.2761 20.9428C26.0261 21.1929 25.687 21.3333 25.3333 21.3333Z" fill="#FF00F5"/>
</svg>
